<svg xmlns="http://www.w3.org/2000/svg" viewBox="0 0 1024 1024"><path fill="#ffffff" d="M512 336a176 176 0 1 1 0 352 176 176 0 0 1 0-352zm0 32a144 144 0 1 0 0 288 144 144 0 0 0 0-288zM512 176a16 16 0 0 1 16 16v64a16 16 0 0 1-32 0v-64a16 16 0 0 1 16-16zm0 576a16 16 0 0 1 16 16v64a16 16 0 0 1-32 0v-64a16 16 0 0 1 16-16zM256.16 495.84a16 16 0 0 1 0 32h-64a16 16 0 1 1 0-32h64zm576 0a16 16 0 0 1 0 32h-64a16 16 0 1 1 0-32h64zM319.712 681.6a16 16 0 1 1 22.624 22.624l-45.248 45.216a16 16 0 1 1-22.624-22.624l45.248-45.216zm407.296-407.328a16 16 0 1 1 22.624 22.656l-45.248 45.248a16 16 0 0 1-22.624-22.624l45.248-45.28zM681.952 681.6a16 16 0 0 1 22.656 0l45.248 45.248a16 16 0 1 1-22.624 22.624l-45.28-45.248a16 16 0 0 1 0-22.624zM274.688 274.272a16 16 0 0 1 22.624 0l45.248 45.248a16.032 16.032 0 0 1-22.624 22.656l-45.248-45.28a16 16 0 0 1 0-22.624z"/></svg>
